<?xml version="1.0" standalone="no"?>
<!DOCTYPE svg PUBLIC "-//W3C//DTD SVG 20010904//EN"
 "http://www.w3.org/TR/2001/REC-SVG-20010904/DTD/svg10.dtd">
<svg version="1.0" xmlns="http://www.w3.org/2000/svg"
 width="667.000000pt" height="230.000000pt" viewBox="0 0 667.000000 230.000000"
 preserveAspectRatio="xMidYMid meet">

<g transform="translate(0.000000,230.000000) scale(0.100000,-0.100000)"
fill="#ffffff" stroke="none">
<path d="M1545 1906 l-89 -84 546 -7 c300 -4 551 -4 557 -1 7 4 11 41 11 92
l0 84 -467 0 -468 -1 -90 -83z"/>
<path d="M2810 1150 l0 -841 88 3 87 3 3 838 2 837 -90 0 -90 0 0 -840z"/>
<path d="M3780 1592 l0 -398 85 -42 c47 -23 87 -42 90 -42 3 0 5 198 5 440 l0
440 -90 0 -90 0 0 -398z"/>
<path d="M4200 1150 l0 -840 90 0 90 0 0 840 0 840 -90 0 -90 0 0 -840z"/>
<path d="M5575 1983 c-40 -6 -45 -16 -45 -101 l0 -72 463 2 462 3 3 88 3 87
-428 -1 c-235 -1 -441 -4 -458 -6z"/>
<path d="M1460 1583 c0 -233 10 -316 40 -348 25 -27 25 -46 -1 -79 -31 -39
-39 -122 -39 -417 l0 -266 88 -84 87 -84 3 403 2 402 366 0 365 0 -3 88 -3 87
-362 3 -363 2 0 250 0 250 -90 0 -90 0 0 -207z"/>
<path d="M5900 1150 l0 -640 90 0 90 0 0 640 0 640 -90 0 -90 0 0 -640z"/>
<path d="M3013 1519 c4 -56 10 -106 14 -110 4 -4 170 -101 368 -214 198 -114
363 -210 367 -214 4 -4 11 -155 15 -336 l8 -330 88 -3 87 -3 0 384 0 385 -217
123 c-503 284 -660 373 -697 397 l-39 24 6 -103z"/>
<path d="M228 1504 c-5 -4 -8 -45 -8 -91 l0 -83 273 0 c149 0 290 5 312 10 30
6 54 23 93 65 55 60 63 78 35 90 -24 11 -696 19 -705 9z"/>
<path d="M993 1488 c-12 -13 -179 -228 -373 -478 -194 -250 -357 -461 -363
-468 -5 -7 -8 -14 -5 -17 2 -2 40 -7 85 -11 l82 -7 31 34 c115 124 740 924
740 947 0 12 -58 22 -126 22 -40 0 -55 -5 -71 -22z"/>
<path d="M222 403 l3 -88 485 0 485 0 3 88 3 87 -491 0 -491 0 3 -87z"/>
<path d="M1660 400 l0 -90 453 2 452 3 3 88 3 87 -456 0 -455 0 0 -90z"/>
<path d="M4400 400 l0 -90 453 2 452 3 3 88 3 87 -456 0 -455 0 0 -90z"/>
<path d="M5605 483 c-27 -3 -55 -9 -62 -15 -8 -7 -13 -37 -13 -84 l0 -74 463
2 462 3 3 88 3 87 -403 -2 c-222 -1 -425 -3 -453 -5z"/>
</g>
</svg>
